####
#
# OBJ File Generated by Meshlab
#
####
# Object arm_simple.obj
#
# Vertices: 4
# Faces: 2
#
####
vn 0.000000 0.000000 2.000000
v -0.182610 -0.629127 0.000000 0.525490 0.533333 0.764706
vn 0.000000 0.000000 1.000000
v 0.182610 -0.629127 0.000000 0.474510 0.486275 0.745098
vn 0.000000 0.000000 2.000000
v 0.182610 0.629127 0.000000 0.474510 0.486275 0.745098
vn 0.000000 0.000000 1.000000
v -0.182610 0.629127 0.000000 0.474510 0.486275 0.745098
# 4 vertices, 0 vertices normals

f 1//1 2//2 3//3
f 1//1 3//3 4//4
# 2 faces, 0 coords texture

# End of File
