####
#
# OBJ File Generated by Meshlab
#
####
# Object face.obj
#
# Vertices: 9
# Faces: 8
#
####
vn -0.000000 -0.000001 -6.000000
v 0.006606 0.016404 0.000000 0.345098 0.172549 0.337255
vn -0.000000 -0.000000 -3.000000
v -0.907521 0.016404 0.000000 0.345098 0.172549 0.337255
vn -0.000000 -0.000000 -2.000000
v -0.816237 1.019689 -0.000000 0.345098 0.172549 0.337255
vn -0.000000 -0.000000 -3.000000
v -0.039378 1.150949 -0.000000 0.345098 0.172549 0.337255
vn -0.000000 -0.000000 -3.000000
v 0.000000 -1.000000 0.000000 0.329412 0.168627 0.325490
vn -0.000000 -0.000000 -1.000000
v -0.894992 -0.875303 0.000000 0.341176 0.172549 0.333333
vn -0.000000 -0.000000 -2.000000
v 0.921244 -0.868740 0.000000 0.247059 0.121569 0.243137
vn -0.000000 -0.000000 -3.000000
v 0.920733 0.016404 -0.000000 0.345098 0.172549 0.337255
vn -0.000000 -0.000000 -1.000000
v 0.842488 1.019689 -0.000000 0.345098 0.172549 0.337255
# 9 vertices, 0 vertices normals

f 1//1 2//2 3//3
f 1//1 3//3 4//4
f 5//5 6//6 2//2
f 5//5 2//2 1//1
f 7//7 5//5 1//1
f 7//7 1//1 8//8
f 8//8 1//1 4//4
f 8//8 4//4 9//9
# 8 faces, 0 coords texture

# End of File
