####
#
# OBJ File Generated by Meshlab
#
####
# Object face2.obj
#
# Vertices: 15
# Faces: 16
#
####
vn -0.000000 -0.000000 -3.000000
v -0.447496 -0.937652 0.000000 0.337255 0.172549 0.329412
vn -0.000000 -0.000000 -1.000000
v -0.894992 -0.875303 0.000000 0.341176 0.172549 0.333333
vn -0.000000 -0.000000 -3.000000
v -0.901257 -0.365160 0.000000 0.345098 0.172549 0.337255
vn -0.000000 -0.000000 -6.000000
v -0.448977 -0.404720 0.000000 0.341176 0.172549 0.337255
vn -0.000000 -0.000000 -2.000000
v -0.826297 0.111441 0.000000 0.345098 0.172549 0.337255
vn -0.000000 -0.000000 -3.000000
v -0.409846 0.234430 0.000000 0.345098 0.172549 0.337255
vn -0.000000 -0.000000 -6.000000
v 0.462146 -0.403079 0.000000 0.317647 0.160784 0.313725
vn -0.000000 -0.000000 -6.000000
v 0.003303 -0.427508 0.000000 0.337255 0.172549 0.333333
vn -0.000000 -0.000000 -3.000000
v 0.006606 0.279678 0.000000 0.345098 0.172549 0.337255
vn -0.000000 -0.000000 -3.000000
v 0.423057 0.234430 -0.000000 0.345098 0.172549 0.337255
vn -0.000000 -0.000000 -3.000000
v 0.460622 -0.934370 0.000000 0.290196 0.145098 0.286275
vn -0.000000 -0.000000 -3.000000
v 0.000000 -0.960867 0.000000 0.329412 0.168627 0.325490
vn -0.000000 -0.000000 -2.000000
v 0.921244 -0.868740 0.000000 0.247059 0.121569 0.243137
vn -0.000000 -0.000000 -3.000000
v 0.920989 -0.361878 0.000000 0.298039 0.149020 0.290196
vn -0.000000 -0.000000 -1.000000
v 0.839508 0.111441 -0.000000 0.345098 0.172549 0.337255
# 15 vertices, 0 vertices normals

f 1//1 2//2 3//3
f 1//1 3//3 4//4
f 4//4 3//3 5//5
f 4//4 5//5 6//6
f 7//7 8//8 9//9
f 7//7 9//9 10//10
f 11//11 12//12 8//8
f 11//11 8//8 7//7
f 13//13 11//11 7//7
f 13//13 7//7 14//14
f 14//14 7//7 10//10
f 14//14 10//10 15//15
f 8//8 4//4 6//6
f 8//8 6//6 9//9
f 12//12 1//1 4//4
f 12//12 4//4 8//8
# 16 faces, 0 coords texture

# End of File
